<?xml version="1.0" encoding="utf-8"?>
<!-- Generator: Adobe Illustrator 25.3.1, SVG Export Plug-In . SVG Version: 6.00 Build 0)  -->
<svg version="1.1" id="Layer_1" xmlns="http://www.w3.org/2000/svg" xmlns:xlink="http://www.w3.org/1999/xlink" x="0px" y="0px"
	 viewBox="0 0 2000 2000" style="enable-background:new 0 0 2000 2000;" xml:space="preserve">
<path d="M1169.9,1068c-9.8-32.1-31.2-61.3-61.1-76.6c-22.2-11.4-48.2-14.6-72.9-10.9c-3.8,0.6-7.6,1.3-11.4,2.2
	c-7.3-34.6-14.6-69.2-21.9-103.9c19.9-20,38.5-41.2,53.5-64.9c31.6-49.9,48.4-116,43.1-174.3c-4.1-45.5-21.1-96.2-56.5-128.4
	c-8-7.3-20-7.9-28.6-1.2c-24,18.8-68.7,71.4-61.2,200.2c0.9,16,3.1,32,6.4,47.7c3.5,16.9,7,33.8,10.5,50.7
	C913.1,873,850.6,940.6,830,1025.9c-15.2,63.2-4.1,138.4,39.4,188.4c45.9,52.8,128.8,68.1,194.5,47.4c4.7,22.7,9.5,45.5,14.2,68.2
	c7.5,36.2,15.5,83-6,116.2c-13.1,20.3-42.7,32.2-66.2,32.8c-21.1,0.5-43.4-10.4-51.5-29.8c21,2.2,42.8-9.2,53-27.7
	c10.2-18.5,8.2-43-4.9-59.6c-13.1-16.6-36.4-24.3-56.8-18.8c-16.6,4.5-30.5,17.2-37.8,32.8s-7.9,33.9-3.2,50.5
	c10.2,35.8,45,61.3,81.7,66.9c27.2,4.1,56.1-1.5,78.7-17.2c64-44.3,36.3-128,23.1-190.5c-2.1-10.2-4.3-20.3-6.4-30.5
	c35.9-15.9,65.3-44.1,81.5-80.2c2.5-5.5,4.6-11.2,6.4-17C1178.7,1128.8,1178.7,1097.1,1169.9,1068z M982.9,656.5
	c7.5-29.7,23-62.8,55.4-71c5.7-1.4,11.9-0.4,16.7,3c35.3,24.7,17.3,85.3-1.5,114.4c-20.4,31.6-44.6,60.9-69.2,89.3
	c-1.5-7.3-3.1-14.7-4.6-22C971.9,733.1,973.6,693.1,982.9,656.5z M986,1246.8c-39.1-3.3-74.6-25.5-97-58
	c-57.6-83.5-22.2-182,46-246.4c17.1-16.2,35-32.1,52.4-48.7c6.5,31.5,13.1,63,19.6,94.5c-18,7-34.4,17.9-47.6,32
	c-19.9,21.5-31.8,50.3-31.9,79.6c0,21.9,6.6,43.9,20,61.2c13.4,17.3,33.6,29.5,55.4,31.8c1.5,0.2,3.2,0.2,4.4-0.8
	c1.7-1.4,1.3-4.2-0.1-5.8c-1.4-1.6-3.5-2.4-5.5-3.3c-21.7-9.1-38-30-41.4-53.3c-4.7-31.8,15.2-64.9,44.5-78.2
	c4.6-2.1,9.4-3.7,14.3-4.9c9.8,47.1,19.6,94.2,29.4,141.3c3.4,16.5,6.9,33,10.3,49.6C1035.7,1246.4,1009.8,1248.8,986,1246.8z
	 M1081,1226.5c-1.5,1-3.1,1.9-4.6,2.8c-10.3-49.1-20.7-98.2-31-147.2c-2.6-12.6-5.3-25.1-7.9-37.7c20.8-0.5,42,6.2,58.8,18.7
	C1151.5,1104.1,1134.4,1192,1081,1226.5z"/>
</svg>
